<?xml version="1.0" standalone="no"?>
<!DOCTYPE svg PUBLIC "-//W3C//DTD SVG 20010904//EN"
 "http://www.w3.org/TR/2001/REC-SVG-20010904/DTD/svg10.dtd">
<svg version="1.0" xmlns="http://www.w3.org/2000/svg"
 width="2500.000000pt" height="2500.000000pt" viewBox="0 0 2500.000000 2500.000000"
 preserveAspectRatio="xMidYMid meet">
<metadata>
Created by potrace 1.14, written by Peter Selinger 2001-2017
</metadata>
<g transform="translate(0.000000,2500.000000) scale(0.100000,-0.100000)"
fill="#000000" stroke="none">
<path d="M12308 24995 c-2 -2 -70 -6 -153 -9 -82 -4 -175 -9 -205 -11 -88 -7
-211 -17 -260 -20 -25 -1 -74 -6 -110 -9 -36 -4 -87 -9 -115 -12 -27 -2 -66
-7 -85 -9 -19 -3 -60 -7 -90 -10 -74 -8 -112 -13 -195 -25 -38 -5 -90 -12
-115 -15 -25 -3 -128 -20 -230 -36 -102 -17 -194 -32 -205 -33 -19 -3 -162
-30 -215 -41 -14 -3 -36 -7 -50 -10 -41 -7 -471 -104 -515 -115 -22 -6 -51
-13 -65 -16 -61 -12 -530 -143 -590 -164 -14 -5 -92 -30 -175 -56 -259 -81
-738 -257 -945 -346 -14 -6 -27 -12 -30 -13 -23 -8 -244 -103 -340 -147 -36
-17 -94 -43 -130 -60 -213 -97 -663 -330 -880 -455 -19 -11 -62 -35 -95 -54
-33 -18 -61 -37 -63 -41 -2 -4 -8 -8 -13 -8 -5 0 -38 -18 -74 -40 -36 -22 -68
-40 -71 -40 -2 0 -10 -5 -17 -10 -7 -6 -77 -51 -157 -101 -213 -134 -427 -278
-635 -428 -103 -74 -407 -302 -415 -311 -3 -3 -50 -41 -104 -85 -55 -43 -109
-86 -120 -96 -12 -9 -41 -34 -66 -54 -45 -37 -143 -121 -164 -140 -6 -5 -45
-39 -86 -75 -41 -36 -81 -72 -90 -80 -9 -8 -59 -53 -111 -100 -120 -108 -626
-614 -744 -744 -123 -136 -167 -185 -201 -225 -16 -19 -34 -39 -39 -45 -6 -6
-37 -42 -70 -81 -33 -38 -62 -72 -65 -75 -3 -3 -32 -39 -65 -80 -33 -41 -63
-77 -66 -80 -14 -11 -271 -345 -359 -465 -52 -72 -97 -132 -100 -135 -3 -3
-19 -25 -35 -50 -120 -176 -161 -236 -165 -240 -9 -9 -76 -112 -154 -235 -41
-66 -80 -125 -84 -131 -5 -5 -20 -30 -34 -55 -14 -24 -41 -69 -60 -99 -110
-172 -321 -555 -479 -870 -53 -107 -112 -226 -129 -265 -18 -38 -46 -99 -62
-135 -17 -36 -66 -148 -109 -250 -44 -102 -84 -194 -88 -205 -5 -11 -23 -56
-41 -100 -17 -44 -35 -89 -40 -100 -5 -11 -20 -51 -34 -90 -14 -38 -41 -113
-61 -165 -71 -186 -279 -833 -300 -930 -2 -8 -13 -51 -24 -95 -57 -213 -133
-527 -147 -605 -3 -14 -7 -33 -10 -42 -3 -10 -7 -30 -10 -45 -3 -16 -16 -82
-29 -148 -13 -66 -27 -133 -29 -150 -11 -58 -65 -380 -70 -415 -6 -43 -35
-261 -41 -312 -3 -21 -7 -55 -10 -75 -14 -119 -41 -401 -50 -538 -4 -44 -8
-100 -10 -125 -26 -294 -26 -1178 0 -1550 10 -145 16 -217 20 -265 2 -27 7
-79 10 -115 10 -114 38 -368 50 -450 2 -14 6 -43 9 -65 5 -38 30 -209 42 -285
11 -75 32 -195 39 -230 3 -14 12 -61 20 -105 8 -44 17 -91 20 -105 2 -14 9
-48 15 -76 6 -28 13 -64 16 -80 3 -16 9 -45 14 -64 5 -19 12 -51 15 -70 3 -19
8 -43 11 -52 3 -9 6 -25 8 -35 13 -64 134 -534 163 -633 9 -30 18 -59 19 -65
16 -75 194 -611 274 -830 54 -146 145 -381 176 -452 8 -18 20 -48 28 -65 8
-18 32 -76 55 -129 22 -53 59 -136 81 -185 23 -49 58 -125 78 -169 84 -183
291 -584 410 -795 36 -63 73 -129 83 -147 191 -339 524 -842 809 -1222 104
-139 346 -448 374 -477 6 -6 29 -33 51 -60 56 -67 177 -208 184 -214 3 -3 21
-23 40 -45 225 -266 849 -891 1074 -1075 17 -14 40 -34 51 -45 18 -18 188
-162 326 -276 86 -71 205 -165 265 -209 33 -25 62 -48 65 -51 9 -10 347 -257
443 -322 209 -144 289 -197 432 -288 169 -108 452 -278 535 -321 30 -16 59
-33 65 -37 5 -4 48 -28 95 -53 47 -25 121 -65 165 -88 90 -49 446 -227 515
-258 25 -11 86 -39 135 -62 97 -45 433 -190 441 -190 2 0 23 -9 47 -19 39 -18
74 -32 245 -97 194 -74 235 -88 493 -174 113 -38 268 -87 345 -109 76 -23 168
-50 204 -61 171 -51 751 -191 893 -215 18 -3 39 -8 47 -10 8 -2 31 -7 50 -10
19 -3 80 -14 135 -25 101 -20 124 -24 205 -35 24 -4 47 -8 50 -10 3 -1 30 -6
61 -9 31 -4 65 -8 75 -10 19 -4 89 -15 134 -21 57 -9 189 -25 243 -30 32 -4
66 -8 76 -10 10 -2 54 -6 97 -10 43 -4 90 -8 104 -10 14 -2 61 -7 105 -10 44
-3 100 -8 125 -10 142 -13 176 -15 505 -31 158 -7 823 -7 995 0 169 7 326 16
410 21 36 3 99 7 140 10 126 8 213 15 260 20 43 4 92 9 210 21 30 3 66 7 80 9
14 3 48 7 75 10 113 12 153 17 210 25 33 5 83 12 110 16 28 3 57 7 65 9 8 1
40 6 70 10 30 4 64 9 75 11 11 3 36 7 55 10 19 3 60 9 90 15 30 5 69 12 85 14
37 7 343 65 370 71 11 3 40 9 65 14 38 7 320 72 373 86 43 10 64 15 87 20 14
3 54 13 90 24 36 10 118 32 183 49 64 17 136 37 160 45 23 7 69 21 102 31 115
33 411 129 450 145 11 5 63 23 115 41 52 17 103 35 115 40 11 5 81 32 155 60
74 28 146 56 160 62 14 6 27 11 30 11 7 2 153 63 245 103 366 159 788 369
1095 545 58 34 119 68 135 78 156 89 722 455 810 524 11 9 85 64 165 123 126
93 189 142 275 212 11 9 54 43 95 75 60 48 323 272 376 321 7 5 54 48 105 95
104 93 538 525 639 636 122 132 314 352 380 434 19 24 40 48 45 54 27 28 303
386 390 506 129 178 299 429 414 615 52 83 102 162 112 177 11 15 19 29 19 32
0 2 22 41 50 86 27 45 50 83 50 84 0 2 24 46 54 98 174 308 409 783 536 1083
4 11 17 41 28 66 45 102 194 484 252 649 34 96 71 202 83 235 12 33 22 65 23
70 1 6 20 66 43 135 96 295 219 754 297 1110 4 19 9 40 10 45 17 74 41 195 79
390 10 52 85 505 90 545 3 25 10 72 15 105 5 33 12 85 15 115 3 30 8 66 10 80
3 14 7 52 10 85 4 33 8 71 10 85 2 14 6 54 10 90 3 36 8 81 10 100 3 19 7 67
10 105 3 39 7 90 9 115 9 88 15 176 22 290 4 63 8 131 9 150 24 308 24 1254 0
1665 -6 102 -16 254 -20 295 -2 25 -7 77 -10 115 -4 39 -8 86 -11 105 -2 19
-6 58 -9 85 -6 49 -31 246 -40 315 -5 31 -15 94 -30 185 -3 17 -9 58 -15 91
-8 50 -64 331 -74 369 -1 6 -8 40 -16 78 -7 37 -18 67 -24 68 -14 0 -11634 0
-11663 0 l-23 -1 0 -2310 0 -2310 3431 0 3431 0 -7 -56 c-4 -31 -8 -66 -10
-78 -2 -11 -6 -37 -9 -56 -3 -19 -8 -46 -11 -60 -2 -14 -12 -61 -21 -105 -113
-566 -377 -1219 -740 -1825 -99 -166 -380 -564 -480 -680 -12 -14 -63 -74
-115 -135 -189 -223 -445 -479 -675 -676 -482 -412 -1063 -771 -1639 -1013
-16 -7 -52 -23 -80 -34 -172 -73 -465 -177 -670 -237 -109 -32 -264 -76 -285
-80 -14 -3 -92 -21 -130 -30 -30 -7 -206 -47 -225 -51 -11 -2 -31 -6 -45 -9
-141 -30 -567 -94 -730 -110 -36 -4 -78 -8 -95 -10 -459 -52 -1290 -52 -1680
0 -16 2 -55 7 -85 10 -107 10 -158 18 -414 60 -31 6 -119 22 -166 31 -86 17
-264 57 -334 75 -44 12 -88 22 -96 24 -8 2 -79 22 -158 44 -912 264 -1761 699
-2514 1288 -278 218 -422 346 -698 623 -335 335 -607 660 -855 1020 -44 63
-83 117 -87 118 -4 2 -8 8 -8 12 0 5 -33 60 -73 122 -146 224 -246 400 -401
708 -84 167 -266 572 -266 593 0 2 -8 22 -17 43 -9 22 -18 44 -19 49 -2 6 -18
51 -37 100 -65 170 -189 560 -227 715 -34 136 -100 410 -104 435 -3 17 -8 41
-11 55 -15 76 -45 242 -51 285 -3 28 -7 52 -9 55 -2 3 -6 29 -10 59 -4 30 -8
63 -10 73 -2 11 -7 46 -10 79 -4 33 -8 69 -10 80 -2 10 -7 56 -10 100 -4 45
-8 90 -10 100 -2 10 -7 71 -10 136 -4 65 -9 134 -11 153 -2 19 -4 163 -5 320
-1 270 3 389 17 560 3 41 8 99 9 127 4 57 8 93 31 278 28 226 97 623 139 795
2 8 22 89 45 180 22 91 43 172 45 180 25 112 199 640 235 715 5 11 28 67 51
125 23 58 57 139 76 180 18 41 46 102 61 135 131 294 404 780 596 1060 94 137
209 299 215 305 3 3 26 32 50 65 240 325 683 802 1021 1099 938 824 2006 1380
3210 1671 3 1 16 4 30 8 30 7 206 46 235 51 57 11 325 56 360 61 23 3 50 7 62
9 12 3 50 7 85 11 35 3 70 8 78 10 8 2 53 7 100 10 47 4 92 9 100 10 9 2 67 6
130 10 63 3 147 8 185 11 105 7 544 7 675 0 162 -9 268 -16 320 -21 25 -2 74
-7 110 -10 36 -4 79 -8 95 -10 17 -2 57 -7 90 -10 33 -4 69 -9 80 -11 11 -2
40 -6 65 -10 25 -3 81 -11 125 -19 44 -8 97 -16 119 -20 101 -15 402 -82 596
-134 557 -148 1174 -407 1675 -704 33 -20 74 -44 90 -53 100 -56 465 -307 585
-401 195 -153 348 -282 484 -407 l40 -36 34 32 c57 55 185 179 506 493 169
165 360 351 424 414 64 62 270 263 457 446 187 183 385 376 440 429 55 54 253
247 439 429 187 183 370 361 407 397 79 77 726 710 775 759 l34 33 -62 58
c-855 780 -1775 1417 -2763 1911 -249 125 -554 265 -760 349 -71 29 -145 59
-163 67 -18 8 -61 25 -95 37 -34 13 -116 44 -182 68 -66 25 -169 62 -230 82
-60 21 -119 41 -130 45 -168 69 -1008 296 -1285 348 -13 2 -56 11 -95 19 -38
9 -81 18 -95 20 -114 21 -199 37 -220 40 -14 3 -47 9 -75 14 -27 5 -72 12
-100 16 -27 4 -54 8 -60 10 -9 2 -46 7 -125 19 -33 5 -108 16 -140 20 -14 2
-47 7 -75 10 -131 15 -185 21 -260 30 -16 2 -63 7 -104 10 -41 4 -83 8 -94 10
-10 2 -61 7 -113 10 -52 3 -114 7 -137 10 -23 2 -91 7 -152 11 -60 3 -137 8
-170 10 -74 5 -1083 13 -1087 9z"/>
</g>
</svg>
